<svg xmlns="http://www.w3.org/2000/svg" viewBox="0 0 400 520"><defs><radialGradient id="bg"><stop stop-color="#689489"/><stop offset="1" stop-color="#101e26"/></radialGradient><linearGradient id="coat" x2="1" y2="1"><stop stop-color="#689489"/><stop offset="1" stop-color="#122c34"/></linearGradient><linearGradient id="metal" x2="1" y2="1"><stop stop-color="#e5c78d"/><stop offset=".5" stop-color="#9b8352"/><stop offset="1" stop-color="#524d40"/></linearGradient></defs><path d="M0 0h400v520H0Z" fill="url(#bg)"/><circle cx="200" cy="207" r="149" stroke="#ddbf7d" stroke-opacity=".15" stroke-width="2" fill="none"/><circle cx="200" cy="207" r="133" stroke="#ddbf7d" stroke-opacity=".12" fill="none"/><path d="M40 520 66 332Q90 282 150 266L250 266Q310 282 334 332L360 520Z" fill="url(#coat)"/><path d="m150 268 50 35 50-35-22 117h-56Z" fill="#152630"/><path d="M142 272 110 308l38 205h38l-11-184ZM258 272l32 36-38 205h-38l11-184Z" fill="url(#metal)"/><path d="M151 236v43q49 51 98 0v-43" fill="#b98d6d"/><path d="M140 151q60-55 120 0v63q-6 60-60 68-54-8-60-68Z" fill="#c7a17d"/><path d="m140 159 10 56 8-40 28-18 59 10 9 49 8-62q-7-46-62-47-51 1-60 52" fill="#222c2e"/><path d="m162 193 21-3m34 0 21 3" stroke="#3b3430" stroke-width="5"/><path d="M195 202 187 228h18m-20 16q16 10 31-2" fill="none" stroke="#89684f" stroke-width="3"/><path d="M127 162q3-57 73-98 70 41 73 98l-40-17-33-13-33 13Z" fill="url(#metal)"/><path d="M193 69h14v70h-14Z" fill="#f1d396"/><path d="M126 153q74-24 148 0v17q-74-25-148 0Z" fill="#423c32"/><path d="M200 65q40-35 21-63-9 26-21 33" fill="#566a62"/><path d="M83 319q33-25 57-15l12 61-63 9ZM317 319q-33-25-57-15l-12 61 63 9Z" fill="url(#metal)"/><g fill="none" stroke="#d5ba7e" stroke-width="3"><path d="M161 351q-24 12 0 27 24 15 0 27m78-54q24 12 0 27-24 15 0 27M154 426q46-20 92 0M154 443q46-20 92 0"/></g><path d="M124 476h152v20H124Z" fill="#63573c"/><rect x="185" y="470" width="30" height="31" rx="4" fill="url(#metal)"/></svg>